<?xml version="1.0" standalone="no"?>
<!DOCTYPE svg PUBLIC "-//W3C//DTD SVG 20010904//EN"
 "http://www.w3.org/TR/2001/REC-SVG-20010904/DTD/svg10.dtd">
<svg version="1.0" xmlns="http://www.w3.org/2000/svg"
 width="500.000000pt" height="500.000000pt" viewBox="0 0 500.000000 500.000000"
 preserveAspectRatio="xMidYMid meet">

<g transform="translate(0.000000,500.000000) scale(0.100000,-0.100000)"
fill="#000000" stroke="none">
<path d="M2310 3849 c-47 -33 -120 -83 -162 -112 -43 -28 -78 -58 -78 -65 0
-7 22 -46 50 -87 47 -70 55 -77 147 -125 54 -28 106 -51 117 -53 13 -1 31 16
58 55 l39 57 -31 42 c-45 63 -40 126 15 181 36 36 81 58 117 58 60 0 148 -66
148 -111 0 -25 1 -24 57 11 26 17 55 30 64 30 10 0 21 5 24 10 8 13 36 13 55
0 23 -15 -6 -30 -61 -30 -25 0 -54 -7 -65 -15 -18 -14 -18 -14 0 -15 12 0 16
-5 13 -14 -7 -18 91 -76 127 -76 26 0 51 -24 41 -40 -9 -15 -45 -12 -51 5 -8
21 -88 65 -119 65 -22 0 -24 -3 -15 -19 5 -11 10 -41 10 -66 0 -38 -5 -52 -29
-76 -48 -48 -128 -34 -151 27 -8 21 -16 24 -63 24 l-54 0 -42 -60 -41 -60 73
-47 c140 -89 173 -110 260 -164 l88 -54 -6 -115 c-7 -147 -36 -494 -41 -499
-15 -16 -15 30 -1 167 15 140 37 377 37 409 0 14 -130 103 -151 103 -18 -1
-554 -364 -553 -376 0 -10 205 -114 449 -229 195 -92 188 -89 191 -100 2 -5
-51 -48 -117 -93 -65 -46 -119 -87 -119 -91 0 -3 42 -48 93 -99 l92 -92 95 91
c52 50 134 129 182 176 63 61 91 82 101 76 20 -11 127 -149 127 -162 0 -23
-20 -9 -67 47 -47 56 -63 72 -73 72 -3 0 -82 -76 -175 -170 -94 -93 -177 -170
-185 -170 -8 0 -62 45 -120 100 -58 54 -111 99 -119 100 -13 0 -50 -24 -218
-139 -34 -24 -68 -53 -76 -65 -9 -14 -16 -69 -21 -164 l-6 -142 29 -28 c16
-15 106 -81 201 -147 95 -65 175 -125 178 -133 2 -8 0 -30 -6 -49 l-11 -35 82
7 c292 25 612 191 809 419 217 251 318 519 318 846 0 324 -99 590 -313 840
-110 129 -238 225 -412 310 -173 84 -332 120 -535 119 l-115 0 -85 -60z m649
-180 c37 -13 41 -29 7 -29 -31 0 -86 20 -86 31 0 12 40 11 79 -2z"/>
<path d="M2181 3874 c-421 -111 -758 -427 -892 -837 -43 -130 -59 -241 -59
-397 0 -323 97 -585 310 -837 207 -246 542 -414 861 -430 l115 -6 13 31 c7 18
11 37 8 44 -2 7 -87 69 -188 137 -101 69 -188 129 -192 135 -5 6 -6 80 -3 164
5 123 4 152 -7 152 -8 0 -45 -25 -84 -55 -77 -59 -87 -64 -79 -37 5 16 25 190
61 532 8 74 17 149 20 165 18 89 26 166 35 310 5 88 14 246 21 352 l13 192
-47 89 c-26 49 -47 96 -47 103 0 14 32 37 219 158 l95 61 -40 0 c-21 -1 -81
-12 -133 -26z"/>
<path d="M1642 1227 c-27 -29 -28 -66 -2 -117 11 -22 20 -48 20 -60 0 -21 -19
-27 -36 -10 -8 8 -14 7 -22 -2 -8 -11 -6 -17 8 -26 17 -10 24 -8 51 16 28 25
31 33 25 64 -4 20 -13 41 -21 48 -18 15 -20 71 -3 88 27 27 57 14 80 -33 20
-42 36 -54 51 -39 6 6 -31 75 -48 86 -23 17 -81 8 -103 -15z"/>
<path d="M2167 1244 c-3 -4 -1 -16 4 -27 9 -16 13 -17 20 -6 13 21 11 39 -4
39 -8 0 -17 -3 -20 -6z"/>
<path d="M2877 1234 c-32 -17 -30 -32 2 -15 15 9 31 8 63 -4 56 -19 71 -19 91
3 15 16 13 17 -21 18 -20 1 -53 4 -72 8 -24 4 -44 1 -63 -10z"/>
<path d="M3278 1234 c-5 -4 -8 -15 -8 -25 0 -10 -10 -27 -22 -39 -19 -18 -20
-20 -4 -20 15 0 17 -8 14 -64 -2 -54 0 -66 16 -76 15 -9 22 -8 35 5 13 14 14
16 1 13 -12 -2 -16 10 -18 59 -3 57 -1 62 20 66 l23 4 -22 8 c-16 5 -23 16
-25 42 -2 19 -6 31 -10 27z"/>
<path d="M2022 1167 c-10 -12 -10 -16 3 -21 18 -7 21 -101 4 -112 -8 -4 -2
-12 15 -21 29 -15 55 -8 37 10 -6 6 -11 34 -11 63 0 62 -27 107 -48 81z"/>
<path d="M2084 1157 c-10 -12 -15 -19 -10 -15 5 4 15 3 21 -2 9 -7 16 -6 24 4
9 10 8 16 -2 25 -11 8 -18 6 -33 -12z"/>
<path d="M2300 1165 c-8 -10 -4 -14 15 -19 22 -6 25 -11 25 -56 0 -38 -4 -52
-19 -59 -28 -15 -45 11 -45 69 0 40 -2 47 -13 38 -18 -15 -16 -89 3 -116 14
-21 17 -21 44 -7 16 8 31 15 33 15 12 0 17 -53 6 -66 -7 -9 -8 -14 -1 -14 21
0 27 26 27 110 l0 85 -32 16 c-26 13 -35 14 -43 4z"/>
<path d="M2457 1155 c-14 -14 -28 -34 -32 -46 -15 -48 20 -128 46 -102 7 7 5
14 -6 23 -17 14 -21 105 -5 115 6 3 19 3 30 0 17 -5 20 -15 20 -63 0 -31 4
-63 9 -71 17 -27 26 -2 23 68 -3 66 -6 72 -31 86 -25 13 -30 12 -54 -10z"/>
<path d="M2592 1167 c-10 -12 -10 -16 3 -21 18 -7 21 -101 4 -112 -8 -4 -2
-12 16 -21 25 -13 29 -13 44 3 9 10 12 15 7 11 -29 -22 -49 60 -25 104 8 16
14 18 24 9 17 -14 32 7 16 23 -8 8 -15 7 -28 -5 -15 -15 -17 -15 -32 4 -15 17
-18 18 -29 5z"/>
<path d="M3367 1166 c-16 -12 -16 -14 -1 -20 13 -5 16 -17 12 -66 -5 -72 8
-91 44 -66 18 13 19 16 5 16 -20 0 -19 -2 -22 73 -2 65 -12 82 -38 63z"/>
<path d="M3474 1170 c-6 -6 -9 -31 -6 -60 3 -34 0 -55 -9 -67 -8 -9 -9 -14 -3
-10 7 4 14 -2 17 -13 3 -14 10 -18 21 -14 11 4 13 10 7 18 -6 7 -11 45 -13 85
-2 52 -6 69 -14 61z"/>
<path d="M1883 1148 c-29 -33 -36 -72 -19 -113 8 -19 19 -35 24 -35 18 0 21
13 7 34 -16 22 -19 56 -9 94 5 16 13 22 28 20 18 -3 21 -11 24 -63 3 -64 15
-87 38 -78 11 4 12 9 4 19 -7 7 -10 39 -9 70 2 49 0 59 -17 65 -33 13 -50 10
-71 -13z"/>
<path d="M2169 1163 c-5 -31 4 -150 12 -158 6 -6 15 -3 26 8 16 16 16 17 0 17
-13 0 -17 9 -17 41 0 22 5 50 11 61 9 16 8 23 -2 29 -17 11 -29 11 -30 2z"/>
<path d="M3120 1150 c-34 -34 -22 -118 21 -140 32 -18 46 3 15 23 -21 14 -24
23 -23 68 2 56 20 76 33 37 4 -13 7 -27 6 -32 -2 -5 4 -6 13 -2 9 3 19 6 21 6
3 0 -2 14 -11 30 -18 35 -46 39 -75 10z"/>
<path d="M1716 1141 c-17 -6 -17 -8 -4 -14 9 -3 23 -30 32 -61 19 -63 31 -75
54 -52 9 9 11 16 5 16 -5 0 -20 27 -32 60 -23 63 -24 63 -55 51z"/>
<path d="M2880 1137 c0 -27 42 -42 81 -28 42 15 76 14 82 -1 3 -8 6 -8 6 -2 1
6 -8 19 -19 29 -19 17 -30 17 -104 -1 -19 -5 -31 -2 -37 7 -7 11 -9 10 -9 -4z"/>
<path d="M2830 1097 c0 -45 63 -97 118 -97 39 0 87 23 96 45 9 25 7 28 -9 11
-40 -39 -147 -27 -184 21 -12 14 -21 23 -21 20z"/>
<path d="M2250 970 c0 -15 39 -32 63 -27 22 4 22 4 -1 6 -12 0 -25 8 -28 16
-7 16 -34 21 -34 5z"/>
</g>
</svg>
